<?xml version="1.0" encoding="utf-8"?>
<!-- Generator: Adobe Illustrator 22.0.1, SVG Export Plug-In . SVG Version: 6.00 Build 0)  -->
<svg version="1.1" id="圖層_1" xmlns="http://www.w3.org/2000/svg" xmlns:xlink="http://www.w3.org/1999/xlink" x="0px" y="0px"
	 viewBox="0 0 48 48" style="enable-background:new 0 0 48 48;" xml:space="preserve">
<style type="text/css">
	.st0{fill:#FFFFFF;}
</style>
<path class="st0" d="M39.3,16.3c-0.4-1.4-1.4-2.4-2.8-2.8C34,12.8,24,12.8,24,12.8s-10,0-12.5,0.7c-1.4,0.4-2.4,1.4-2.8,2.8
	C8,18.8,8,24,8,24s0,5.2,0.7,7.7c0.4,1.4,1.4,2.4,2.8,2.8C14,35.2,24,35.2,24,35.2s10,0,12.5-0.7c1.4-0.4,2.4-1.4,2.8-2.8
	C40,29.2,40,24,40,24S40,18.8,39.3,16.3z M20.8,28.8v-9.6l8.3,4.8L20.8,28.8z"/>
</svg>
