<?xml version="1.0" encoding="utf-8"?>
<!-- Generator: Adobe Illustrator 22.0.1, SVG Export Plug-In . SVG Version: 6.00 Build 0)  -->
<svg version="1.1" id="圖層_1" xmlns="http://www.w3.org/2000/svg" xmlns:xlink="http://www.w3.org/1999/xlink" x="0px" y="0px"
	 viewBox="0 0 48 48" style="enable-background:new 0 0 48 48;" xml:space="preserve">
<style type="text/css">
	.st0{fill:#FFFFFF;}
</style>
<path class="st0" d="M37.7,8H10.3C9.1,8,8,9,8,10.3v27.4c0,1.3,1,2.3,2.3,2.3h14.8V27.6H21v-4.9h4.2v-3.5c0-4.2,2.6-6.4,6.2-6.4
	c1.8,0,3.3,0.2,3.8,0.2v4.3h-2.6c-2,0-2.4,1-2.4,2.3v3.1H35l-0.6,4.9h-4.2V40h7.6c1.3,0,2.3-1,2.3-2.3V10.3C40,9,39,8,37.7,8z"/>
</svg>
