<?xml version="1.0" encoding="utf-8"?>
<!-- Generator: Adobe Illustrator 22.0.1, SVG Export Plug-In . SVG Version: 6.00 Build 0)  -->
<svg version="1.1" id="圖層_1" xmlns="http://www.w3.org/2000/svg" xmlns:xlink="http://www.w3.org/1999/xlink" x="0px" y="0px"
	 viewBox="0 0 48 48" style="enable-background:new 0 0 48 48;" xml:space="preserve">
<style type="text/css">
	.st0{fill:#FFFFFF;}
</style>
<g>
	<path class="st0" d="M39.9,17.4c-0.1-1.7-0.3-2.9-0.7-3.9c-0.4-1-1-2-1.8-2.8c-0.8-0.8-1.8-1.4-2.8-1.8c-1-0.4-2.2-0.6-3.9-0.7
		C28.9,8,28.3,8,24,8s-4.9,0-6.6,0.1c-1.8,0.1-2.9,0.4-3.9,0.7c-1,0.5-2,1-2.8,1.9c-0.8,0.8-1.4,1.8-1.8,2.8c-0.4,1-0.6,2.2-0.7,3.9
		C8,19.1,8,19.7,8,24s0,4.9,0.1,6.6s0.3,2.9,0.7,3.9c0.4,1,1,2,1.8,2.8s1.8,1.4,2.8,1.8c1,0.4,2.2,0.6,3.9,0.7
		C19.1,40,19.7,40,24,40s4.9,0,6.6-0.1s2.9-0.3,3.9-0.7c2.2-0.8,3.8-2.6,4.7-4.7c0.4-1,0.6-2.2,0.7-3.9C40,28.9,40,28.3,40,24
		S40,19.1,39.9,17.4z M37,30.5c-0.1,1.6-0.3,2.4-0.6,3c-0.6,1.4-1.7,2.5-3,3c-0.6,0.2-1.4,0.5-3,0.6c-1.7,0.1-2.2,0.1-6.5,0.1
		s-4.8,0-6.5-0.1c-1.6-0.1-2.4-0.3-3-0.6c-0.7-0.2-1.4-0.6-1.8-1.2c-0.6-0.5-1-1.1-1.2-1.8c-0.2-0.6-0.5-1.4-0.6-3
		c0-1.7-0.1-2.2-0.1-6.5s0-4.8,0.1-6.5c0.1-1.6,0.3-2.4,0.6-3c0.2-0.7,0.6-1.4,1.2-1.8c0.5-0.6,1.1-1,1.8-1.2c0.6-0.2,1.4-0.5,3-0.6
		c1.7-0.1,2.2-0.1,6.5-0.1c4.2,0,4.8,0,6.5,0.1c1.6,0.1,2.4,0.3,3,0.6c0.7,0.2,1.4,0.6,1.8,1.2c0.6,0.5,1,1.1,1.2,1.8
		c0.2,0.6,0.5,1.4,0.6,3c0.1,1.7,0.1,2.2,0.1,6.5S37.1,28.8,37,30.5z"/>
	<path class="st0" d="M24,15.8c-4.6,0-8.2,3.7-8.2,8.2s3.7,8.2,8.2,8.2s8.2-3.7,8.2-8.2S28.6,15.8,24,15.8z M24,29.4
		c-3,0-5.4-2.4-5.4-5.4s2.4-5.4,5.4-5.4s5.4,2.4,5.4,5.4S27,29.4,24,29.4z"/>
	<path class="st0" d="M34.5,15.4c0,1-0.9,1.9-1.9,1.9c-1,0-1.9-0.9-1.9-1.9s0.9-1.9,1.9-1.9C33.6,13.5,34.5,14.4,34.5,15.4z"/>
</g>
</svg>
