<?xml version="1.0" encoding="utf-8"?>
<!-- Generator: Adobe Illustrator 23.0.1, SVG Export Plug-In . SVG Version: 6.00 Build 0)  -->
<svg version="1.1" id="圖層_1" xmlns="http://www.w3.org/2000/svg" xmlns:xlink="http://www.w3.org/1999/xlink" x="0px" y="0px"
	 viewBox="0 0 48 48" style="enable-background:new 0 0 48 48;" xml:space="preserve">
<style type="text/css">
	.st0{fill:#FFFFFF;}
</style>
<path class="st0" d="M41.1,4H6.9C5.3,4,4,5.3,4,6.9v34.2C4,42.7,5.3,44,6.9,44h18.5V28.5h-5.2v-6.1h5.2V18c0-5.2,3.2-8,7.8-8
	c2.2,0,4.1,0.2,4.7,0.2v5.4h-3.2c-2.5,0-3,1.2-3,2.9v3.9h6l-0.8,6.1h-5.2V44h9.5c1.6,0,2.9-1.3,2.9-2.9V6.9C44,5.3,42.7,4,41.1,4z"
	/>
</svg>
