<?xml version="1.0" encoding="utf-8"?>
<!-- Generator: Adobe Illustrator 23.0.1, SVG Export Plug-In . SVG Version: 6.00 Build 0)  -->
<svg version="1.1" id="Capa_1" xmlns="http://www.w3.org/2000/svg" xmlns:xlink="http://www.w3.org/1999/xlink" x="0px" y="0px"
	 viewBox="0 0 48 48" style="enable-background:new 0 0 48 48;" xml:space="preserve">
<style type="text/css">
	.st0{fill:#FFFFFF;}
</style>
<g id="pinterest_2_">
	<g>
		<path class="st0" d="M24,4C13,4,4,13,4,24c0,8.2,4.9,15.2,12,18.3c-0.1-1.4,0-3.1,0.3-4.6c0.4-1.6,2.6-10.9,2.6-10.9
			s-0.6-1.3-0.6-3.2c0-3,1.7-5.2,3.9-5.2c1.8,0,2.7,1.4,2.7,3c0,1.8-1.2,4.6-1.8,7.1c-0.5,2.1,1.1,3.9,3.2,3.9
			c3.8,0,6.3-4.9,6.3-10.6c0-4.4-3-7.7-8.3-7.7c-6.1,0-9.8,4.5-9.8,9.6c0,1.7,0.5,3,1.3,3.9c0.4,0.4,0.4,0.6,0.3,1.1
			c-0.1,0.4-0.3,1.3-0.4,1.6c-0.1,0.5-0.5,0.7-1,0.5c-2.8-1.1-4.1-4.2-4.1-7.6c0-5.7,4.8-12.5,14.3-12.5c7.6,0,12.7,5.5,12.7,11.5
			c0,7.8-4.4,13.7-10.8,13.7c-2.2,0-4.2-1.2-4.9-2.5c0,0-1.2,4.6-1.4,5.5c-0.4,1.5-1.3,3.1-2,4.3C20.1,43.7,22,44,24,44
			c11,0,20-9,20-20S35,4,24,4z"/>
	</g>
</g>
</svg>
