<?xml version="1.0" encoding="utf-8"?>
<!-- Generator: Adobe Illustrator 23.0.1, SVG Export Plug-In . SVG Version: 6.00 Build 0)  -->
<svg version="1.1" id="圖層_1" xmlns="http://www.w3.org/2000/svg" xmlns:xlink="http://www.w3.org/1999/xlink" x="0px" y="0px"
	 viewBox="0 0 48 48" style="enable-background:new 0 0 48 48;" xml:space="preserve">
<style type="text/css">
	.st0{fill:#FFFFFF;}
</style>
<g>
	<path class="st0" d="M43.9,15.8c-0.1-2.1-0.4-3.6-0.9-4.9s-1.3-2.5-2.3-3.5s-2.2-1.8-3.5-2.3s-2.7-0.8-4.9-0.9C30.1,4,29.4,4,24,4
		s-6.1,0-8.2,0.1c-2.2,0.1-3.6,0.5-4.9,0.9C9.6,5.6,8.4,6.3,7.4,7.4c-1,1-1.8,2.2-2.3,3.5s-0.8,2.7-0.9,4.9C4,17.9,4,18.6,4,24
		s0,6.1,0.1,8.2s0.4,3.6,0.9,4.9c0.5,1.3,1.3,2.5,2.3,3.5s2.2,1.8,3.5,2.3s2.7,0.8,4.9,0.9C17.9,44,18.6,44,24,44s6.1,0,8.2-0.1
		s3.6-0.4,4.9-0.9c2.7-1,4.8-3.2,5.9-5.9c0.5-1.3,0.8-2.7,0.9-4.9C44,30.1,44,29.4,44,24S44,17.9,43.9,15.8z M40.3,32.1
		c-0.1,2-0.4,3-0.7,3.7c-0.7,1.7-2.1,3.1-3.8,3.8c-0.7,0.3-1.8,0.6-3.7,0.7c-2.1,0.1-2.7,0.1-8.1,0.1s-6,0-8.1-0.1
		c-2-0.1-3-0.4-3.7-0.7c-0.9-0.3-1.7-0.8-2.3-1.5c-0.7-0.6-1.2-1.4-1.5-2.3c-0.3-0.7-0.6-1.8-0.7-3.7c0-2.1-0.1-2.7-0.1-8.1
		s0-6,0.1-8.1c0.1-2,0.4-3,0.7-3.7c0.3-0.9,0.8-1.7,1.5-2.3c0.6-0.7,1.4-1.2,2.3-1.5c0.7-0.3,1.8-0.6,3.7-0.7
		C18,7.6,18.6,7.6,24,7.6c5.3,0,6,0,8.1,0.1c2,0.1,3,0.4,3.7,0.7c0.9,0.3,1.7,0.8,2.3,1.5c0.7,0.6,1.2,1.4,1.5,2.3
		c0.3,0.7,0.6,1.8,0.7,3.7c0.1,2.1,0.1,2.7,0.1,8.1S40.4,30,40.3,32.1z"/>
	<path class="st0" d="M24,13.7c-5.7,0-10.3,4.6-10.3,10.3S18.3,34.3,24,34.3S34.3,29.7,34.3,24S29.7,13.7,24,13.7z M24,30.7
		c-3.7,0-6.7-3-6.7-6.7s3-6.7,6.7-6.7s6.7,3,6.7,6.7S27.7,30.7,24,30.7z"/>
	<path class="st0" d="M37.1,13.3c0,1.3-1.1,2.4-2.4,2.4c-1.3,0-2.4-1.1-2.4-2.4s1.1-2.4,2.4-2.4C36,10.9,37.1,12,37.1,13.3z"/>
</g>
</svg>
