<?xml version="1.0" encoding="utf-8"?>
<!-- Generator: Adobe Illustrator 23.0.1, SVG Export Plug-In . SVG Version: 6.00 Build 0)  -->
<svg version="1.1" id="Capa_1" xmlns="http://www.w3.org/2000/svg" xmlns:xlink="http://www.w3.org/1999/xlink" x="0px" y="0px"
	 viewBox="0 0 48 48" style="enable-background:new 0 0 48 48;" xml:space="preserve">
<style type="text/css">
	.st0{fill:#FFFFFF;}
</style>
<g>
	<g>
		<path class="st0" d="M44,11.6c-1.5,0.7-3.1,1.1-4.7,1.3c1.7-1,3-2.6,3.6-4.5c-1.6,0.9-3.3,1.6-5.2,2c-1.5-1.6-3.7-2.6-6-2.6
			c-4.5,0-8.2,3.7-8.2,8.2c0,0.7,0.1,1.3,0.2,1.9c-6.8-0.3-12.8-3.6-16.9-8.6c-0.7,1.2-1.1,2.6-1.1,4.1c0,2.8,1.5,5.4,3.6,6.8
			c-1.3,0-2.6-0.4-3.7-1v0.1c0,4,2.8,7.3,6.6,8.1c-0.7,0.2-1.4,0.3-2.1,0.3c-0.5,0-1.1,0-1.6-0.1c1.1,3.2,4.1,5.6,7.7,5.7
			c-2.8,2.2-6.3,3.5-10.2,3.5c-0.7,0-1.3,0-2-0.1c3.6,2.3,7.9,3.7,12.6,3.7c15.1,0,23.3-12.5,23.3-23.3c0-0.4,0-0.7,0-1.1
			C41.5,14.7,42.9,13.3,44,11.6z"/>
	</g>
</g>
</svg>
