<?xml version="1.0" encoding="utf-8"?>
<!-- Generator: Adobe Illustrator 23.0.1, SVG Export Plug-In . SVG Version: 6.00 Build 0)  -->
<svg version="1.1" id="Capa_1" xmlns="http://www.w3.org/2000/svg" xmlns:xlink="http://www.w3.org/1999/xlink" x="0px" y="0px"
	 viewBox="0 0 48 48" style="enable-background:new 0 0 48 48;" xml:space="preserve">
<style type="text/css">
	.st0{fill:#FFFFFF;}
</style>
<g>
	<path class="st0" d="M24,38c7.7,0,14-6.3,14-14s-6.3-14-14-14s-14,6.3-14,14S16.3,38,24,38z M28.1,35.7c0.8-1,1.4-2.3,1.9-3.4h3.2
		C31.9,33.7,30.1,35,28.1,35.7z M34.5,30.5h-3.9c0.5-1.8,0.8-3.7,0.9-5.8h5C36.2,27,35.5,28.9,34.5,30.5L34.5,30.5z M34.5,17.5
		c1.1,1.7,1.7,3.7,1.9,5.8h-5c-0.1-2-0.3-4-0.9-5.8H34.5z M33.3,15.8h-3.2c-0.5-1.2-1.1-2.4-1.9-3.4C30.1,13,31.9,14.3,33.3,15.8z
		 M24.9,11.8c1.6,0.5,2.8,2.5,3.4,4h-3.4V11.8z M24.9,17.5h4c0.5,1.7,0.9,3.7,0.9,5.8h-4.9C24.9,23.2,24.9,17.5,24.9,17.5z
		 M24.9,24.9h4.9c-0.1,2-0.4,4-0.9,5.8h-4V24.9z M24.9,32.2h3.4c-0.7,1.6-1.8,3.5-3.4,4V32.2z M14.7,32.2h3.2
		c0.5,1.2,1.1,2.4,1.9,3.4C17.9,35,16.1,33.7,14.7,32.2z M23.1,36.2c-1.6-0.5-2.8-2.5-3.4-4h3.4V36.2z M23.1,30.5h-4
		c-0.5-1.7-0.9-3.7-0.9-5.8h4.9C23.1,24.8,23.1,30.5,23.1,30.5z M23.1,23.1h-4.9c0.1-2,0.4-4,0.9-5.8h4
		C23.1,17.4,23.1,23.1,23.1,23.1z M23.1,11.8v4h-3.4C20.4,14.2,21.6,12.3,23.1,11.8z M19.9,12.3c-0.8,1-1.4,2.3-1.9,3.4h-3.2
		C16.1,14.3,17.9,13,19.9,12.3z M13.5,17.5h3.9c-0.5,1.8-0.8,3.7-0.9,5.8h-4.9C11.8,21,12.5,19.1,13.5,17.5z M11.6,24.9h5
		c0.1,2,0.3,4,0.9,5.8h-3.9C12.5,28.9,11.8,27,11.6,24.9z"/>
</g>
</svg>
