<?xml version="1.0" encoding="utf-8"?>
<!-- Generator: Adobe Illustrator 22.0.1, SVG Export Plug-In . SVG Version: 6.00 Build 0)  -->
<svg version="1.1" id="Capa_1" xmlns="http://www.w3.org/2000/svg" xmlns:xlink="http://www.w3.org/1999/xlink" x="0px" y="0px"
	 viewBox="0 0 48 48" style="enable-background:new 0 0 48 48;" xml:space="preserve">
<style type="text/css">
	.st0{fill:#FFFFFF;}
</style>
<g>
	<g>
		<path class="st0" d="M40,14.1c-1.2,0.6-2.5,0.9-3.8,1c1.4-0.8,2.4-2.1,2.9-3.6c-1.3,0.7-2.6,1.3-4.2,1.6c-1.2-1.3-3-2.1-4.8-2.1
			c-3.6,0-6.6,3-6.6,6.6c0,0.6,0.1,1,0.2,1.5c-5.4-0.2-10.2-2.9-13.5-6.9c-0.6,1-0.9,2.1-0.9,3.3c0,2.2,1.2,4.3,2.9,5.4
			c-1,0-2.1-0.3-3-0.8v0.1c0,3.2,2.2,5.8,5.3,6.5C14,26.9,13.4,27,12.9,27c-0.4,0-0.9,0-1.3-0.1c0.9,2.6,3.3,4.5,6.2,4.6
			c-2.2,1.8-5,2.8-8.2,2.8c-0.6,0-1,0-1.6-0.1c2.9,1.8,6.3,3,10.1,3c12.1,0,18.6-10,18.6-18.6c0-0.3,0-0.6,0-0.9
			C38,16.6,39.1,15.5,40,14.1z"/>
	</g>
</g>
</svg>
