<?xml version="1.0" encoding="utf-8"?>
<!-- Generator: Adobe Illustrator 23.0.1, SVG Export Plug-In . SVG Version: 6.00 Build 0)  -->
<svg version="1.1" id="圖層_1" xmlns="http://www.w3.org/2000/svg" xmlns:xlink="http://www.w3.org/1999/xlink" x="0px" y="0px"
	 viewBox="0 0 48 48" style="enable-background:new 0 0 48 48;" xml:space="preserve">
<style type="text/css">
	.st0{fill:#FFFFFF;}
</style>
<path class="st0" d="M44.1,13.9c-0.5-1.8-1.9-3.2-3.7-3.7C37.1,9.3,24,9.3,24,9.3s-13.1,0-16.4,0.9c-1.8,0.5-3.2,1.9-3.7,3.7
	C3,17.2,3,24,3,24s0,6.8,0.9,10.1c0.5,1.8,1.9,3.2,3.7,3.7c3.3,0.9,16.4,0.9,16.4,0.9s13.1,0,16.4-0.9c1.8-0.5,3.2-1.9,3.7-3.7
	C45,30.8,45,24,45,24S45,17.2,44.1,13.9z M19.8,30.3V17.7L30.7,24L19.8,30.3z"/>
</svg>
