<?xml version="1.0" encoding="utf-8"?>
<!-- Generator: Adobe Illustrator 22.0.1, SVG Export Plug-In . SVG Version: 6.00 Build 0)  -->
<svg version="1.1" id="Capa_1" xmlns="http://www.w3.org/2000/svg" xmlns:xlink="http://www.w3.org/1999/xlink" x="0px" y="0px"
	 viewBox="0 0 48 48" style="enable-background:new 0 0 48 48;" xml:space="preserve">
<style type="text/css">
	.st0{fill:#FFFFFF;}
</style>
<g id="pinterest_2_">
	<g>
		<path class="st0" d="M24,8C15.2,8,8,15.2,8,24c0,6.6,3.9,12.2,9.6,14.6c-0.1-1.1,0-2.5,0.2-3.7c0.3-1.3,2.1-8.7,2.1-8.7
			s-0.5-1-0.5-2.6c0-2.4,1.4-4.2,3.1-4.2c1.4,0,2.2,1.1,2.2,2.4c0,1.4-1,3.7-1.4,5.7c-0.4,1.7,0.9,3.1,2.6,3.1c3,0,5-3.9,5-8.5
			c0-3.5-2.4-6.2-6.6-6.2c-4.9,0-7.8,3.6-7.8,7.7c0,1.4,0.4,2.4,1,3.1c0.3,0.3,0.3,0.5,0.2,0.9c-0.1,0.3-0.2,1-0.3,1.3
			c-0.1,0.4-0.4,0.6-0.8,0.4c-2.2-0.9-3.3-3.4-3.3-6.1c0-4.6,3.8-10,11.4-10c6.1,0,10.2,4.4,10.2,9.2c0,6.2-3.5,11-8.6,11
			c-1.8,0-3.4-1-3.9-2c0,0-1,3.7-1.1,4.4c-0.3,1.2-1,2.5-1.6,3.4c1.3,0.4,2.8,0.6,4.4,0.6c8.8,0,16-7.2,16-16S32.8,8,24,8z"/>
	</g>
</g>
</svg>
