<?xml version="1.0" encoding="utf-8"?>
<!-- Generator: Adobe Illustrator 23.0.1, SVG Export Plug-In . SVG Version: 6.00 Build 0)  -->
<svg version="1.1" xmlns="http://www.w3.org/2000/svg" xmlns:xlink="http://www.w3.org/1999/xlink" x="0px" y="0px"
	 viewBox="0 0 44 44" style="enable-background:new 0 0 44 44;" xml:space="preserve">
<style type="text/css">
	.st0{display:none;}
	.st1{display:inline;}
	.st2{fill:none;stroke:#1DBFAF;stroke-linecap:round;stroke-linejoin:round;stroke-miterlimit:10;}
</style>
<g id="圖層_1" class="st0">
	<g class="st1">
		<path class="st2" d="M31.6,26.2H12.4V25c0-5.3,4.3-9.6,9.6-9.6s9.6,4.3,9.6,9.6V26.2z"/>
		<line class="st2" x1="26.8" y1="10.6" x2="17.2" y2="10.6"/>
		<line class="st2" x1="22" y1="15.4" x2="22" y2="10.6"/>
		<polygon class="st2" points="34,33.4 10,33.4 12.4,29.8 31.6,29.8 		"/>
	</g>
</g>
<g id="圖層_2">
	<path class="st2" d="M31.6,25.2l-19.2,2V25c0-5.3,4.3-9.6,9.6-9.6s9.6,4.3,9.6,9.6V25.2z"/>
	<line class="st2" x1="26.8" y1="13.8" x2="17.2" y2="13.8"/>
	<line class="st2" x1="22" y1="15.4" x2="22" y2="13.8"/>
	<polygon class="st2" points="34,33.4 10,33.4 12.4,29.8 31.6,29.8 	"/>
	<path class="st2" d="M31.6,27.2l-19.2-2V25c0-5.3,4.3-9.6,9.6-9.6s9.6,4.3,9.6,9.6V27.2z"/>
</g>
</svg>
