<?xml version="1.0" encoding="utf-8"?>
<!-- Generator: Adobe Illustrator 23.0.1, SVG Export Plug-In . SVG Version: 6.00 Build 0)  -->
<svg version="1.1" xmlns="http://www.w3.org/2000/svg" xmlns:xlink="http://www.w3.org/1999/xlink" x="0px" y="0px"
	 viewBox="0 0 44 44" style="enable-background:new 0 0 44 44;" xml:space="preserve">
<style type="text/css">
	.st0{fill:none;stroke:#1DBFAF;stroke-linecap:round;stroke-linejoin:round;stroke-miterlimit:10;}
</style>
<g id="圖層_1">
	<g>
		<path class="st0" d="M31.5,19c0,5.2-9.5,15.5-9.5,15.5S12.5,24.3,12.5,19s4.3-9.5,9.5-9.5S31.5,13.8,31.5,19z"/>
		<circle class="st0" cx="22" cy="19" r="4.2"/>
	</g>
</g>
<g id="圖層_2">
	<g>
		<path class="st0" d="M31.5,28.3c0,2.1-9.5,6.2-9.5,6.2s-9.5-4.1-9.5-6.2s4.3-3.8,9.5-3.8S31.5,26.2,31.5,28.3z"/>
		<ellipse class="st0" cx="22" cy="28.3" rx="4.2" ry="1.7"/>
	</g>
	<g>
		<path class="st0" d="M31.5,23.6c0,3.6-9.5,10.9-9.5,10.9s-9.5-7.1-9.5-10.9S16.8,17,22,17S31.5,20,31.5,23.6z"/>
		<ellipse class="st0" cx="22" cy="23.6" rx="4.2" ry="2.9"/>
	</g>
</g>
</svg>
