<?xml version="1.0" encoding="utf-8"?>
<!-- Generator: Adobe Illustrator 22.0.1, SVG Export Plug-In . SVG Version: 6.00 Build 0)  -->
<svg version="1.0" id="圖層_1" xmlns="http://www.w3.org/2000/svg" xmlns:xlink="http://www.w3.org/1999/xlink" x="0px" y="0px"
	 viewBox="0 0 44 44" style="enable-background:new 0 0 44 44;" xml:space="preserve">
<style type="text/css">
	.st0{fill:none;stroke:#1DBFAF;stroke-linecap:round;stroke-linejoin:round;stroke-miterlimit:10;}
</style>
<g>
	<polygon class="st0" points="32.2,34 11.8,34 14.2,16.6 29.8,16.6 	"/>
	<path class="st0" d="M17.8,19v-4.8c0-2.3,1.9-4.2,4.2-4.2s4.2,1.9,4.2,4.2V19"/>
</g>
<g>
	<polygon class="st0" points="32.2,30 11.8,30 14.2,12.6 29.8,12.6 	"/>
	<path class="st0" d="M17.8,15v-4.8C17.8,7.9,19.7,6,22,6s4.2,1.9,4.2,4.2V15"/>
</g>
<path class="st0" d="M26.2,19v4.8c0,2.3-1.9,4.2-4.2,4.2s-4.2-1.9-4.2-4.2V19"/>
</svg>
