<?xml version="1.0" encoding="utf-8"?>
<!-- Generator: Adobe Illustrator 22.1.0, SVG Export Plug-In . SVG Version: 6.00 Build 0)  -->
<svg version="1.1" id="Layer_1" xmlns="http://www.w3.org/2000/svg" xmlns:xlink="http://www.w3.org/1999/xlink" x="0px" y="0px"
	 viewBox="0 0 24 24" style="enable-background:new 0 0 24 24;" xml:space="preserve">
<title>Color_Block/Black Copy 38</title>
<desc>Created with Sketch.</desc>
<g id="Symbols">
	<g id="icon_x2F_call">
		<g id="Color_x5F_Block_x2F_Black-Copy-38">
			<g id="Mask">
				<path id="path-1_1_" d="M0,5c0-2,3-5,5-5s5,5,5,6c0,0.7-0.7,1.7-2,3c1.8,2.8,4.1,5.1,7,7c1.3-1.3,2.3-2,3-2c1,0,6,2.8,6,5
					s-3,5-5,5C11,24,0,13,0,5z M1,5c0,7.4,10.5,18,18,18c1.5,0,4-2.4,4-4c0-0.5-0.8-1.5-2.2-2.5C19.6,15.7,18.2,15,18,15
					c-0.3,0-1.1,0.6-2.3,1.7l-0.6,0.6l-0.7-0.4c-3-1.9-5.4-4.4-7.3-7.3L6.7,8.9l0.6-0.6C8.4,7.1,9,6.3,9,6c0-0.2-0.7-1.6-1.6-2.8
					C6.5,1.9,5.5,1,5,1C3.5,1,1,3.6,1,5z"/>
			</g>
		</g>
	</g>
</g>
</svg>
